<?xml version="1.0" standalone="no"?><!DOCTYPE svg PUBLIC "-//W3C//DTD SVG 1.1//EN" "http://www.w3.org/Graphics/SVG/1.1/DTD/svg11.dtd"><svg t="1499083553341" class="icon" style="" viewBox="0 0 1024 1024" version="1.1" xmlns="http://www.w3.org/2000/svg" p-id="7443" xmlns:xlink="http://www.w3.org/1999/xlink" width="16" height="16"><defs><style type="text/css"></style></defs><path d="M-20.41451-2.046567l0 0 0 14.325972 0 0 0-14.325972Z" p-id="7444" fill="#999999"></path><path d="M513.330269 623.077446c-7.776956 0-15.144599-2.660538-21.079644-7.572299L44.973319 382.298791 43.02908 380.354552c-6.242031-6.242031-9.721195-14.632957-9.721195-23.535525 0-8.902568 3.479165-17.293495 9.721195-23.535525l2.046567-2.046567 445.947037-228.089937c12.177076-10.02818 29.879884-10.02818 42.05696 0l445.947037 228.089937 2.046567 2.046567c6.242031 6.242031 9.721195 14.632957 9.721195 23.535525 0 8.902568-3.479165 17.293495-9.721195 23.535525l-1.944239 1.944239L534.409913 615.505146C528.474868 620.31458 521.107225 623.077446 513.330269 623.077446zM73.625262 356.921355 513.125612 586.034576l0.102328 0.102328 0.102328-0.102328 2.455881-1.22794 434.588588-227.88528-438.170081-224.099131-0.204657-0.204657-0.204657 0.204657L73.625262 356.921355z" p-id="7445" fill="#999999"></path><path d="M513.330269 768.997702c-7.572299 0-15.04227-2.558209-21.181973-7.572299L44.87099 523.102628l-1.841911-1.841911c-12.995703-12.995703-12.995703-34.075347 0-47.07105l1.534926-1.534926 107.649445-65.080843 18.521435 30.596183-97.92825 59.248126 440.421305 234.638953 0.102328 0.102328 0.102328-0.102328 438.272409-234.843609L853.469771 432.951334l19.647047-29.982212 106.626162 69.890277 1.330269 1.330269c6.242031 6.242031 9.721195 14.632957 9.721195 23.535525 0 8.902568-3.479165 17.293495-9.721195 23.535525l-1.841911 1.841911-2.353553 1.22794L534.512241 761.425402C528.372539 766.439492 520.80024 768.997702 513.330269 768.997702z" p-id="7446" fill="#999999"></path><path d="M512 917.578495c-7.572299 0-15.144599-2.558209-21.284301-7.674628L44.768662 665.134406l-1.841911-1.841911c-6.242031-6.242031-9.721195-14.632957-9.721195-23.535525s3.479165-17.293495 9.721195-23.535525l1.22794-1.22794 102.021385-67.843709 19.851704 29.777556-93.835115 62.317977L512 880.740282l0 0 0 0 2.251224-1.22794L951.705006 639.449985 850.39992 573.141201l19.647047-29.982212 109.696013 71.834516 1.330269 1.330269c6.242031 6.242031 9.721195 14.632957 9.721195 23.535525 0 8.902568-3.479165 17.293495-9.721195 23.535525l-1.841911 1.841911-2.251224 1.22794L533.284301 909.903867C527.144599 915.020286 519.572299 917.578495 512 917.578495z" p-id="7447" fill="#999999"></path></svg>