<?xml version="1.0" standalone="no"?><!DOCTYPE svg PUBLIC "-//W3C//DTD SVG 1.1//EN" "http://www.w3.org/Graphics/SVG/1.1/DTD/svg11.dtd"><svg t="1499084232843" class="icon" style="" viewBox="0 0 1024 1024" version="1.1" xmlns="http://www.w3.org/2000/svg" p-id="9390" xmlns:xlink="http://www.w3.org/1999/xlink" width="16" height="16"><defs><style type="text/css"></style></defs><path d="M871.2 986.4 784 986.4l-21.6 0L175.2 986.4c-60 0-108.8-48.8-108.8-108.8L66.4 138.4c0-60 48.8-108.8 108.8-108.8l500 0C735.2 29.6 784 78.4 784 138.4l0 283.2 87.2 0c48 0 87.2 39.2 87.2 87.2l0 391.2C957.6 948 919.2 986.4 871.2 986.4zM718.4 160c0-36-29.6-65.6-65.6-65.6L196.8 94.4c-36 0-65.6 29.6-65.6 65.6l0 696c0 36 29.6 65.6 65.6 65.6l522.4 0L719.2 160zM892.8 529.6c0-24-19.2-43.2-43.2-43.2L784 486.4l0 435.2 65.6 0c24 0 43.2-19.2 43.2-43.2L892.8 529.6zM231.2 704l388 0c19.2 0 34.4 14.4 34.4 32.8 0 18.4-15.2 32.8-34.4 32.8L231.2 769.6c-19.2 0-34.4-14.4-34.4-32.8C196.8 718.4 212 704 231.2 704zM619.2 529.6 231.2 529.6c-19.2 0-34.4-14.4-34.4-32.8s15.2-32.8 34.4-32.8l388 0c19.2 0 34.4 14.4 34.4 32.8S638.4 529.6 619.2 529.6zM619.2 290.4 231.2 290.4c-19.2 0-34.4-14.4-34.4-32.8s15.2-32.8 34.4-32.8l388 0c19.2 0 34.4 14.4 34.4 32.8S638.4 290.4 619.2 290.4z" p-id="9391" fill="#999999"></path></svg>