<?xml version="1.0" standalone="no"?><!DOCTYPE svg PUBLIC "-//W3C//DTD SVG 1.1//EN" "http://www.w3.org/Graphics/SVG/1.1/DTD/svg11.dtd"><svg t="1495098966852" class="icon" style="" viewBox="0 0 1024 1024" version="1.1" xmlns="http://www.w3.org/2000/svg" p-id="32080" xmlns:xlink="http://www.w3.org/1999/xlink" width="300" height="300"><defs><style type="text/css"></style></defs><path d="M512.805 64.646c-246.85 0-446.79 199.936-446.79 446.79 0 246.85 199.94 446.79 446.79 446.79 246.855 0 446.79-199.94 446.79-446.79 0-246.854-199.936-446.79-446.79-446.79z m33.597 712.893h-73.909V696.91h73.909v80.628zM653.9 421.443c-13.437 24.672-31.388 45.912-53.75 63.828-22.394 17.954-38.11 35.833-47.03 53.752-8.957 17.951-13.44 30.233-13.44 36.951v23.517h-60.468v-33.593c0-20.157 5.038-39.753 15.118-58.791 10.076-19.001 27.399-39.753 52.072-62.149 17.916-15.642 30.232-31.916 36.95-48.71 6.72-16.799 10.08-33.035 10.08-48.71 0-29.081-6.72-50.917-20.156-65.51-13.437-14.558-32.475-21.836-57.11-21.836-24.673 0-45.353 9.555-62.149 28.555-16.798 19.038-25.197 49.867-25.197 92.383h-77.266c2.205-62.673 19-109.181 50.391-139.414 31.354-30.235 69.392-45.353 114.22-45.353 49.235 0 87.867 13.437 115.896 40.312 27.996 26.874 41.996 61.627 41.996 104.144 0.002 29.113-6.72 55.988-20.157 80.624z" fill="#1296db" p-id="32081"></path></svg>