<?xml version="1.0" standalone="no"?><!DOCTYPE svg PUBLIC "-//W3C//DTD SVG 1.1//EN" "http://www.w3.org/Graphics/SVG/1.1/DTD/svg11.dtd"><svg t="1500884841684" class="icon" style="" viewBox="0 0 1024 1024" version="1.1" xmlns="http://www.w3.org/2000/svg" p-id="10026" xmlns:xlink="http://www.w3.org/1999/xlink" width="64" height="64"><defs><style type="text/css"></style></defs><path d="M840.768 287.424c-12.736-17.984-31.168-38.016-46.272-38.016-26.048 0-47.04 20.608-47.04 46.016 0 6.784 13.76 25.024 23.104 39.488 49.984 57.664 80.448 132.096 80.448 213.632 0 182.976-151.744 331.392-339.008 331.392-187.264 0-339.008-148.352-339.008-331.392 0-81.536 30.4-155.968 80.448-213.632 10.112-11.648 23.168-29.824 23.168-39.488 0-25.408-21.056-46.016-47.104-46.016-15.104 0-33.536 20.032-46.272 38.016-59.392 71.232-94.976 162.112-94.976 261.12 0 228.736 189.76 414.272 423.744 414.272 234.048 0 423.808-185.472 423.808-414.272-0.064-99.008-35.712-189.888-95.04-261.12z m-316.992 330.24c32.512 0 58.88-25.856 58.88-57.6V122.88c0-31.808-26.368-57.536-58.88-57.536s-58.88 25.728-58.88 57.536v437.184c0 31.744 26.368 57.6 58.88 57.6z" p-id="10027" fill="#ffffff"></path></svg>