<?xml version="1.0" standalone="no"?><!DOCTYPE svg PUBLIC "-//W3C//DTD SVG 1.1//EN" "http://www.w3.org/Graphics/SVG/1.1/DTD/svg11.dtd"><svg t="1496297877345" class="icon" style="" viewBox="0 0 1024 1024" version="1.1" xmlns="http://www.w3.org/2000/svg" p-id="11577" xmlns:xlink="http://www.w3.org/1999/xlink" width="300" height="300"><defs><style type="text/css"></style></defs><path d="M836.06163 401.13603l-31.722492 0 0-27.629267c0-0.342808-0.01228-0.683569-0.025583-1.023306 0.013303-0.339738 0.025583-0.680499 0.025583-1.023306 0-79.540567-30.975479-154.320715-87.217411-210.56367-56.243979-56.243979-131.023102-87.218434-210.564693-87.218434-79.540567 0-154.319691 30.974455-210.56367 87.218434-56.243979 56.243979-87.218434 131.023102-87.218434 210.56367 0 0.342808 0.01228 0.683569 0.025583 1.023306-0.013303 0.339738-0.025583 0.680499-0.025583 1.023306l0 27.629267-27.629267 0c-36.676317 0-66.514903 29.838585-66.514903 66.514903l0 409.322479c0 36.676317 29.838585 66.514903 66.514903 66.514903l654.915967 0c36.676317 0 66.514903-29.838585 66.514903-66.514903l0-409.322479C902.576533 430.974615 872.737948 401.13603 836.06163 401.13603zM259.915681 372.483456c0.013303-0.339738 0.025583-0.680499 0.025583-1.023306 0-65.874313 25.65224-127.804804 72.232115-174.384679 46.579875-46.579875 108.510366-72.232115 174.383656-72.232115 65.874313 0 127.804804 25.65224 174.384679 72.232115 46.579875 46.579875 72.232115 108.510366 72.232115 174.384679 0 0.342808 0.01228 0.683569 0.025583 1.023306-0.013303 0.339738-0.025583 0.680499-0.025583 1.023306l0 27.629267-493.233588 0 0-27.629267C259.941264 373.162932 259.928984 372.823194 259.915681 372.483456zM851.411223 876.973412c0 8.463766-6.885827 15.349593-15.349593 15.349593l-654.915967 0c-8.463766 0-15.349593-6.885827-15.349593-15.349593l0-409.322479c0-8.463766 6.885827-15.349593 15.349593-15.349593l654.915967 0c8.463766 0 15.349593 6.885827 15.349593 15.349593L851.411223 876.973412z" p-id="11578" fill="#515151"></path><path d="M508.603647 523.932774c-59.246359 0-107.447151 48.200792-107.447151 107.447151 0 33.027208 15.373129 64.138786 40.932248 84.350107l0 38.446637c0 36.676317 29.838585 66.514903 66.514903 66.514903l4.093225 0c36.676317 0 66.514903-29.838585 66.514903-66.514903l0-41.814338c23.287379-20.274766 36.839023-49.629327 36.839023-80.982406C616.050798 572.133565 567.851029 523.932774 508.603647 523.932774zM539.538193 678.389588l-11.490705 7.583722 0 68.203358c0 8.463766-6.885827 15.349593-15.349593 15.349593l-4.093225 0c-8.463766 0-15.349593-6.885827-15.349593-15.349593l0-66.664306-12.768815-7.389294c-17.371646-10.05296-28.163433-28.730345-28.163433-48.743144 0-31.033807 25.248034-56.281841 56.281841-56.281841 31.033807 0 56.281841 25.248034 56.281841 56.281841C564.885488 650.340765 555.410696 667.914002 539.538193 678.389588z" p-id="11579" fill="#515151"></path></svg>