<?xml version="1.0" standalone="no"?><!DOCTYPE svg PUBLIC "-//W3C//DTD SVG 1.1//EN" "http://www.w3.org/Graphics/SVG/1.1/DTD/svg11.dtd"><svg t="1498708814898" class="icon" style="" viewBox="0 0 1024 1024" version="1.1" xmlns="http://www.w3.org/2000/svg" p-id="1849" xmlns:xlink="http://www.w3.org/1999/xlink" width="128" height="128"><defs><style type="text/css"></style></defs><path d="M498.790652 887.292432c-220.614583 0-400.098397-179.483814-400.098397-400.098397 0-220.61663 179.483814-400.100444 400.098397-400.100444 220.61663 0 400.100444 179.483814 400.100444 400.100444C898.891096 707.809641 719.406259 887.292432 498.790652 887.292432L498.790652 887.292432zM498.790652 148.654668c-186.668447 0-338.536296 151.86785-338.536296 338.539366 0 186.66947 151.868873 338.535273 338.536296 338.535273 186.670493 0 338.538343-151.865803 338.538343-338.535273C837.328995 300.522518 685.461145 148.654668 498.790652 148.654668L498.790652 148.654668z" p-id="1850" fill="#cdcdcd"></path><path d="M896.128169 915.311579c-7.870248 0-15.759939-3.012613-21.765723-9.016351L754.019591 785.952372c-12.004405-12.026918-12.004405-31.506575 0-43.533492 12.008498-12.006452 31.526017-12.006452 43.533492 0l120.342856 120.344902c12.007475 12.027941 12.007475 31.503505 0 43.532469C911.890154 912.299989 903.99944 915.311579 896.128169 915.311579L896.128169 915.311579z" p-id="1851" fill="#cdcdcd"></path></svg>