<?xml version="1.0" standalone="no"?><!DOCTYPE svg PUBLIC "-//W3C//DTD SVG 1.1//EN" "http://www.w3.org/Graphics/SVG/1.1/DTD/svg11.dtd"><svg t="1499229349585" class="icon" style="" viewBox="0 0 1024 1024" version="1.1" xmlns="http://www.w3.org/2000/svg" p-id="5294" xmlns:xlink="http://www.w3.org/1999/xlink" width="300" height="300"><defs><style type="text/css"></style></defs><path d="M511.944649 1021.232439C357.237998 1021.232439 69.467022 792.355158 69.467022 575.931901V162.735068c0-10.01857 8.441061-18.127523 18.930116-18.321253l25.046426-0.415134c0.940971 0 99.18938-1.964968 200.509783-41.790169C417.902932 61.414666 484.877904 14.50451 485.569794 14.034024l14.861802-10.433704a19.981789 19.981789 0 0 1 22.804701-0.055351l15.055531 10.489055c0.664215 0.470485 67.722214 47.380642 171.616447 88.174488 101.375753 39.8252 199.624163 41.790169 200.648161 41.790169l24.852696 0.415134c10.489056 0.193729 18.930116 8.302683 18.930116 18.321253l0.19373 413.196833c0 216.423257-287.770976 445.300538-442.588329 445.300538zM886.257252 210.890626c-38.053961-2.878263-118.064145-12.592402-201.201673-45.277295-84.964118-33.376784-147.40029-70.821882-173.11093-87.34422-25.682965 16.466987-88.174488 53.967436-173.083255 87.34422C255.862245 198.159847 176.073466 207.929336 137.549019 210.862951v365.041274c0 169.762182 250.68566 377.273893 374.39563 377.273893 47.906478 0 141.339332-38.607474 233.167-123.433213 88.506596-81.698396 141.339332-176.625733 141.339332-253.813004l-0.193729-365.06895zM476.464519 645.286975a33.985647 33.985647 0 0 1-48.155559 0l-102.122995-102.039968a34.040998 34.040998 0 0 1 48.155559-48.155558l78.072891 78.045215 197.18871-197.188709a33.930296 33.930296 0 0 1 48.127883 0c13.339643 13.284292 13.339643 34.815915 0 48.155558l-221.266489 221.183462z" fill="#515151" p-id="5295"></path></svg>